<svg width="260" height="64" viewBox="0 0 260 64" fill="none" xmlns="http://www.w3.org/2000/svg">
  <rect x="6" y="6" width="64" height="52" rx="16" fill="url(#paint0_linear)" opacity="0.95"/>
  <path d="M28 33c0-6.08 4.92-11 11-11s11 4.92 11 11-4.92 11-11 11-11-4.92-11-11Z" stroke="white" stroke-width="3" stroke-linecap="round" stroke-linejoin="round"/>
  <path d="M40.8 26.6c0 2.7-2.44 4.9-5.44 4.9-3 0-5.44-2.2-5.44-4.9 0-2.7 2.44-4.9 5.44-4.9 3 0 5.44 2.2 5.44 4.9Z" fill="white" opacity="0.9"/>
  <path d="M54 45c0-4.6-3.68-8.3-8.3-8.3h-3.4c-4.62 0-8.3 3.7-8.3 8.3" stroke="white" stroke-width="3" stroke-linecap="round" stroke-linejoin="round"/>
  <text x="84" y="39" fill="#2f2235" font-family="Inter, system-ui, -apple-system, sans-serif" font-size="24" font-weight="800" letter-spacing="0.6">Family Caregive</text>
  <defs>
    <linearGradient id="paint0_linear" x1="6" y1="6" x2="70" y2="58" gradientUnits="userSpaceOnUse">
      <stop stop-color="#6B3F69"/>
      <stop offset="0.5" stop-color="#8D5F8C"/>
      <stop offset="1" stop-color="#A376A2"/>
    </linearGradient>
  </defs>
</svg>

